<?xml version="1.0" encoding="UTF-8"?>
<svg id="Layer_2" data-name="Layer 2" xmlns="http://www.w3.org/2000/svg" viewBox="0 0 218.28 74.52">
  <defs>
    <style>
      .cls-1 {
        fill: none;
        stroke: #fff;
        stroke-miterlimit: 10;
        stroke-width: 2.53px;
      }

      .cls-2 {
        fill: #fff;
      }
    </style>
  </defs>
  <g id="_레이어_1" data-name="레이어 1">
    <path class="cls-1" d="M37.07,67.2c0,2-1,3.96-2.8,5.11-2.56,1.63-5.93,1.11-7.88-1.22L3.6,43.86c-3.08-3.68-3.12-9.02-.1-12.75L25.83,3.51c1.19-1.46,2.93-2.24,4.7-2.24,1.08,0,2.18.29,3.16.89,2.77,1.7,3.7,5.29,2.11,8.12l-10.41,18.47c-3,5.32-2.95,11.83.14,17.1l10.71,18.3c.56.96.83,2.01.83,3.05Z"/>
    <path class="cls-1" d="M181.22,67.2c0,2,1,3.96,2.8,5.11,2.56,1.63,5.93,1.11,7.88-1.22l22.78-27.23c3.08-3.68,3.12-9.02.1-12.75l-22.33-27.6c-1.19-1.46-2.93-2.24-4.7-2.24-1.08,0-2.18.29-3.16.89-2.77,1.7-3.7,5.29-2.11,8.12l10.41,18.47c3,5.32,2.95,11.83-.14,17.1l-10.71,18.3c-.56.96-.83,2.01-.83,3.05Z"/>
    <g>
      <path class="cls-2" d="M58.34,9.34l-1.09,6.08h13.78l-1.22,6.87h-13.78l-1.83,10.43h-8.3l5.35-30.42,26.33-.1v7.37l-19.24-.22Z"/>
      <path class="cls-2" d="M123.98,2.2l-16.54,30.52h-7.17l-1.22-7.39-1.43-9-4.78,9-4.3,7.39h-7.17l-5.26-30.52h8.1l2.03,10.79.96,7.34,9.54-18.14h5.89l2.95,17.96,3.52-7.17,5.31-10.79h9.57Z"/>
      <path class="cls-2" d="M153.77,14.86c0,11-7.21,17.86-18.77,17.86h-12.91l5.58-30.52h12.52c8.26,0,13.58,4.92,13.58,12.66ZM145.34,15.46c0-3.91-2.11-5.89-5.89-5.89h-5.16l-2.6,16.12h4.74c5.22,0,8.92-4.36,8.92-10.22Z"/>
      <path class="cls-2" d="M171.87,28.31l2,2-2.86,2.97-2.03-2.11c-1.97,1.64-4.11,2.17-6.69,2.17-3.89,0-6.25-1.89-6.25-4.69,0-2.53,1.3-4.44,4.75-6.11-.92-1.19-1.36-2.22-1.36-3.64,0-3.19,2.66-5.8,7.11-5.8,3.16,0,5.02,1.75,5.02,4.05,0,2.61-2,4.89-4.44,6.36l1.97,1.97c.53-.72.86-1.39,1.33-2.55l3.64,1.14c-.58,1.55-1.25,3.03-2.19,4.25ZM166.29,28.36l-2.91-3.03c-1.44.58-2.47,1.25-2.47,2.53,0,.89.64,1.61,2.17,1.61,1.25,0,2.33-.36,3.22-1.11ZM163.79,18.79c0,.61.22,1.22.86,2.08,2-.97,2.61-2,2.61-2.86,0-.72-.47-1.28-1.44-1.28-1.36,0-2.03.89-2.03,2.05Z"/>
      <path class="cls-2" d="M65.89,61.79h-3.04v9.82h-8.26v-30.42h15.08c6.74,0,11.08,4.26,11.08,10.43,0,4.48-2.22,7.78-6.43,9.34l8.3,10.65h-9.65l-7.08-9.82ZM68.41,48.06h-5.65v7.39h5.65c2.74,0,4.22-1.3,4.22-3.69s-1.48-3.69-4.22-3.69Z"/>
      <path class="cls-2" d="M173.4,41.23l-10.87,30.42h-7.34l-2.61-7.39-3.22-9.34-3.13,9.34-2.65,7.39h-7.26l-10.86-30.42h9.13l3.35,10.69,2.22,8.17,6.43-18.86h5.39l6.69,19.08,2.48-8.39,3.17-10.69h9.08Z"/>
      <rect class="cls-2" x="86.09" y="41.23" width="41.74" height="6.69"/>
      <rect class="cls-2" x="86.09" y="64.84" width="41.74" height="6.69"/>
      <rect class="cls-2" x="86.05" y="52.96" width="41.74" height="6.69"/>
    </g>
  </g>
</svg>